<svg xmlns="http://www.w3.org/2000/svg" viewBox="0 0 281.09 247.6"><defs><style>.cls-1{fill:#a67d56;}</style></defs><g id="Layer_2" data-name="Layer 2"><g id="Layer_1-2" data-name="Layer 1"><path class="cls-1" d="M160.11,100.3a4.12,4.12,0,1,0-5.83,5.82l5.33,5.33H121.48l5.32-5.33A4.12,4.12,0,0,0,121,100.3l-12.35,12.35a4.11,4.11,0,0,0,0,5.82L121,130.83A4.12,4.12,0,0,0,126.8,125l-5.32-5.32h38.13L154.28,125a4.12,4.12,0,0,0,5.83,5.83l12.35-12.36a4.11,4.11,0,0,0,0-5.82Z"/><path class="cls-1" d="M78.6,65.88h-58A20.61,20.61,0,0,0,0,86.47a4.12,4.12,0,0,0,8.23,0A12.38,12.38,0,0,1,20.59,74.11h58A12.37,12.37,0,0,1,91,86.47v66.7a4.13,4.13,0,0,1-8.24,0V86.74a4.12,4.12,0,1,0-8.23,0V233.37a6.21,6.21,0,0,1-6.27,6,6.28,6.28,0,0,1-6.27-6.27v-80.2a4.11,4.11,0,0,0-4.11-4.11H41.36a4.11,4.11,0,0,0-4.12,4.11v80.2a6.27,6.27,0,0,1-12.54.28V86.74a4.12,4.12,0,1,0-8.23,0v66.15a4.12,4.12,0,0,1-8.24,0V102.94a4.12,4.12,0,1,0-8.23,0v49.95a12.37,12.37,0,0,0,12.35,12.36,12.21,12.21,0,0,0,4.12-.71v68.83a14.5,14.5,0,0,0,29-.28V157h8.24v76.08a14.5,14.5,0,0,0,29,.28V164.58a13,13,0,0,0,4.12.67,12.09,12.09,0,0,0,12.35-12.08V86.47A20.61,20.61,0,0,0,78.6,65.88Z"/><path class="cls-1" d="M49.41,57.64A28.82,28.82,0,1,0,20.59,28.82,28.85,28.85,0,0,0,49.41,57.64Zm0-49.41A20.59,20.59,0,1,1,28.82,28.82,20.62,20.62,0,0,1,49.41,8.23Z"/><path class="cls-1" d="M260.5,65.88h-58A20.61,20.61,0,0,0,181.9,86.47v66.42a12.37,12.37,0,0,0,12.35,12.36,12.21,12.21,0,0,0,4.12-.71v68.83a14.5,14.5,0,0,0,29-.28V157h8.24v76.08a14.51,14.51,0,0,0,29,.28V164.58a12.88,12.88,0,0,0,4.11.67,12.1,12.1,0,0,0,12.36-12.08V86.47A20.61,20.61,0,0,0,260.5,65.88Zm12.35,87.29a4.12,4.12,0,0,1-8.23,0V86.74a4.12,4.12,0,1,0-8.23,0V233.37a6.27,6.27,0,0,1-12.53-.28v-80.2a4.11,4.11,0,0,0-4.11-4.11H223.26a4.11,4.11,0,0,0-4.12,4.11v80.2a6.27,6.27,0,0,1-12.53.28V86.74a4.12,4.12,0,1,0-8.23,0v66.15a4.12,4.12,0,0,1-8.24,0V86.47a12.37,12.37,0,0,1,12.35-12.36h58a12.37,12.37,0,0,1,12.35,12.36Z"/><path class="cls-1" d="M231.31,57.64a28.82,28.82,0,1,0-28.82-28.82A28.85,28.85,0,0,0,231.31,57.64Zm0-49.41a20.59,20.59,0,1,1-20.59,20.59A20.62,20.62,0,0,1,231.31,8.23Z"/></g></g></svg>