<svg xmlns="http://www.w3.org/2000/svg" viewBox="0 0 264.65 283.34"><defs><style>.cls-1{fill:#a67d56;}</style></defs><g id="Layer_2" data-name="Layer 2"><g id="Layer_1-2" data-name="Layer 1"><path class="cls-1" d="M241.78,226.12a35.47,35.47,0,1,0-49.86,0,29.83,29.83,0,0,0-17.33,11.68,29.86,29.86,0,0,0-17.33-11.68,35.48,35.48,0,1,0-49.87,0A29.86,29.86,0,0,0,90.06,237.8a29.83,29.83,0,0,0-17.33-11.68,35.47,35.47,0,1,0-49.86,0A29.81,29.81,0,0,0,0,255.07v22.74a5.54,5.54,0,0,0,5.53,5.53H107.3a5.54,5.54,0,1,0,0-11.07H95.6v-17.2a18.71,18.71,0,0,1,18.68-18.69h36.09a18.71,18.71,0,0,1,18.68,18.69v17.2h-11.7a5.54,5.54,0,1,0,0,11.07H259.12a5.54,5.54,0,0,0,5.53-5.53V255.07a29.81,29.81,0,0,0-22.87-28.95Zm-194-49.61a24.4,24.4,0,1,1-24.4,24.4A24.43,24.43,0,0,1,47.8,176.51ZM11.07,255.07a18.71,18.71,0,0,1,18.69-18.69H65.84a18.72,18.72,0,0,1,18.69,18.69v17.2H11.07Zm121.26-78.56a24.4,24.4,0,1,1-24.41,24.4,24.43,24.43,0,0,1,24.41-24.4Zm84.52,0a24.4,24.4,0,1,1-24.4,24.4A24.43,24.43,0,0,1,216.85,176.51Zm36.73,95.76H180.12v-17.2a18.72,18.72,0,0,1,18.69-18.69H234.9a18.71,18.71,0,0,1,18.68,18.69v17.2Z"/><path class="cls-1" d="M137.54,275.69a5.53,5.53,0,1,0-2,6.72A5.6,5.6,0,0,0,137.54,275.69Z"/><path class="cls-1" d="M90.87,106.18a5.46,5.46,0,0,0,4.62-1.57L160,40.16a5.54,5.54,0,0,0-1.13-8.7,52.67,52.67,0,0,0-72,72A5.52,5.52,0,0,0,90.87,106.18Zm12-58.61a41.67,41.67,0,0,1,43.65-9.68L93.23,91.22A41.65,41.65,0,0,1,102.91,47.57Z"/><path class="cls-1" d="M103.13,118.45a5.55,5.55,0,0,0,2.7,4.07,52.68,52.68,0,0,0,72-72,5.53,5.53,0,0,0-8.69-1.14L104.7,113.82a5.54,5.54,0,0,0-1.57,4.63Zm68.29-55.7a41.61,41.61,0,0,1-53.33,53.33Z"/><path class="cls-1" d="M132.33,154a77,77,0,1,0-54.47-22.52A76.81,76.81,0,0,0,132.33,154ZM85.69,30.35A65.94,65.94,0,1,1,66.37,77,65.75,65.75,0,0,1,85.69,30.35Z"/></g></g></svg>