<svg xmlns="http://www.w3.org/2000/svg" viewBox="0 0 281.45 178.19"><defs><style>.cls-1{fill:#a67d56;}</style></defs><g id="Layer_2" data-name="Layer 2"><g id="Layer_1-2" data-name="Layer 1"><path class="cls-1" d="M149.7,160.47c29,0,64.54-29.29,69.41-58.18l8.33-50a4.13,4.13,0,0,0-3.39-4.75c-19.43-2.75-38.29-6.9-54.37-19-18.37-15.25-39.54-15.25-57.91,0-16.08,12.06-34.94,16.21-54.37,19A4.13,4.13,0,0,0,54,52.29l8.33,50c5.17,31,39.76,54.78,68.93,58.15a4.12,4.12,0,0,0,.95-8.19c-29.07-3.36-58.38-30.57-61.8-51.64L62.82,55c19.4-2.81,37.89-7.81,53.89-19.82,14.29-13.31,33.74-13.31,48,0,16,12,34.49,17,53.89,19.82L211,100.62c-9.11,27.39-32.75,48.27-61.79,51.63a4.12,4.12,0,0,0,.46,8.22Z"/><path class="cls-1" d="M260.29,50.42H245.2l2-12.28a4.12,4.12,0,0,0-3.39-4.74L210.4,27.83C184,24.38,175.91,4.22,150.43.06A4.12,4.12,0,0,0,149,8.18c22.32,4,30.22,23.53,60.06,27.78l29.38,4.9-10.65,63.91c-12,38-46.69,65.18-87.05,65.18-39.95,0-75.59-27.13-87.06-65.18L43,40.86c11.77-2,23.95-3.08,35.41-6.41,32.19-9.34,34.44-22.79,54-26.28a4.11,4.11,0,0,0,3.33-4.78A4.17,4.17,0,0,0,131,.06c-23.46,3.26-32.26,23-60,27.77L37.6,33.4a4.12,4.12,0,0,0-3.39,4.74l2,12.28H21.16A21.19,21.19,0,0,0,0,71.59V93.4a21.1,21.1,0,0,0,14.61,20.12l39.07,12.73a98.91,98.91,0,0,0,174.09,0l39.07-12.73A21.1,21.1,0,0,0,281.45,93.4V71.59a21.19,21.19,0,0,0-21.16-21.17ZM17.16,105.68A12.88,12.88,0,0,1,8.25,93.4V71.59A12.92,12.92,0,0,1,21.16,58.67H37.63l8,47.78c.49,3,2.31,7.06,3.32,9.57Zm256-12.28a12.89,12.89,0,0,1-8.92,12.28L232.55,116c1-2.53,2.81-6.59,3.31-9.57l8-47.78h16.47A12.92,12.92,0,0,1,273.2,71.59V93.4Z"/><path class="cls-1" d="M85.38,88.7a4.12,4.12,0,0,0,4.12,4.12H192a4.13,4.13,0,0,0,0-8.25H89.5A4.12,4.12,0,0,0,85.38,88.7Z"/><path class="cls-1" d="M190.57,75.5c2.1.71,3.86-.13,5.27-2.49a4.13,4.13,0,0,0-2.5-5.27,151.15,151.15,0,0,0-43.43-8.6,4.12,4.12,0,1,0-.4,8.24,142.76,142.76,0,0,1,41.06,8.12Z"/><path class="cls-1" d="M131.47,59.33a187.38,187.38,0,0,0-43.2,8.36,4.12,4.12,0,0,0-2.71,5.16c1.35,2.42,3.07,3.33,5.17,2.71a178.7,178.7,0,0,1,41.29-8,4.12,4.12,0,1,0-.55-8.23Z"/><path class="cls-1" d="M88.27,109.7a180.53,180.53,0,0,0,54.1,8.7,150.79,150.79,0,0,0,51-8.75,4.12,4.12,0,1,0-2.76-7.76c-30.94,11-64.53,11-99.84,0a4.12,4.12,0,0,0-2.46,7.86Z"/></g></g></svg>