<svg xmlns="http://www.w3.org/2000/svg" viewBox="0 0 240.19 282.57"><defs><style>.cls-1{fill:#a67d56;}</style></defs><g id="Layer_2" data-name="Layer 2"><g id="Layer_1-2" data-name="Layer 1"><g id="coronavirus-covid19-virus-insurance-protect"><path class="cls-1" d="M216.62,197.78a9.4,9.4,0,0,0-8.11,4.71h-6.69a18.54,18.54,0,0,0-2-4.8l4.74-4.74a9.28,9.28,0,0,0,2.4.35,9.42,9.42,0,1,0-9.37-9.45,9.25,9.25,0,0,0,.31,2.45L193.16,191a18.54,18.54,0,0,0-4.8-2v-6.68a9.41,9.41,0,1,0-9.41,0V189a18.4,18.4,0,0,0-4.8,2l-4.74-4.73A9.39,9.39,0,1,0,158,193a9.66,9.66,0,0,0,2.39.3,9.3,9.3,0,0,0,2.41-.35l4.74,4.74a18.2,18.2,0,0,0-2,4.8H158.8a9.42,9.42,0,1,0,0,9.42h6.69a18.34,18.34,0,0,0,2,4.8l-4.74,4.73a9.42,9.42,0,1,0,6.66,6.66l4.74-4.73a18.4,18.4,0,0,0,4.8,2v6.68a9.41,9.41,0,1,0,9.41,0v-6.68a18.54,18.54,0,0,0,4.8-2l4.74,4.73a9.42,9.42,0,1,0,11.53-6.66,9.57,9.57,0,0,0-4.87,0l-4.74-4.73a18.69,18.69,0,0,0,2-4.8h6.69a9.42,9.42,0,1,0,8.11-14.13Zm-33,18.84a9.42,9.42,0,1,1,9.42-9.42A9.41,9.41,0,0,1,183.65,216.62Z"/><path class="cls-1" d="M226.77,170.75a173,173,0,0,0,8.68-54.2V42.38a4.7,4.7,0,0,0-3.22-4.47L119.22.24a4.75,4.75,0,0,0-3,0L3.22,37.91A4.71,4.71,0,0,0,0,42.38v74.17A173.29,173.29,0,0,0,96.32,272.42l19.3,9.65a4.66,4.66,0,0,0,4.21,0l19.31-9.65a174.27,174.27,0,0,0,22.2-13.3,56.46,56.46,0,0,0,65.43-88.37ZM134.94,264l-17.21,8.58-17.2-8.6A163.92,163.92,0,0,1,9.42,116.55V45.78L117.73,9.67,226,45.78v70.77a163.78,163.78,0,0,1-6.8,46.81,56.55,56.55,0,0,0-16.93-9.42,147.46,147.46,0,0,0,4.89-37.39V62.73A4.71,4.71,0,0,0,204,58.26L119.22,30a4.75,4.75,0,0,0-3,0L31.48,58.26a4.69,4.69,0,0,0-3.22,4.47v53.82a145.11,145.11,0,0,0,80.68,130.56l6.68,3.34a4.72,4.72,0,0,0,4.21,0l6.71-3.35c4-2,7.86-4.24,11.6-6.55A56.83,56.83,0,0,0,152,254a162.36,162.36,0,0,1-17,10Zm62.84-147.44a137.87,137.87,0,0,1-4.58,35,56.36,56.36,0,0,0-60,81c-3.52,2.16-7.14,4.24-10.91,6.15L117.73,241l-4.58-2.29A135.74,135.74,0,0,1,37.67,116.55V66.12l80.06-26.69,80.05,26.69ZM183.65,254.29a47.09,47.09,0,1,1,47.09-47.09A47.09,47.09,0,0,1,183.65,254.29Z"/><path class="cls-1" d="M78.34,111a4.84,4.84,0,0,0-6.66,0L58.37,124.29a4.71,4.71,0,0,0,0,6.66L105,177.57a4.71,4.71,0,0,0,6.66,0l76-76a4.71,4.71,0,0,0,0-6.66L174.33,81.57a4.86,4.86,0,0,0-6.66,0l-59.36,59.37ZM171,91.56l6.66,6.66-69.35,69.36-40-40L75,121l30,30a4.84,4.84,0,0,0,6.66,0Z"/></g></g></g></svg>